# xmcd CD database file
#
# Track frame offsets:
#	150
#	18560
#	46175
#	64042
#	92377
#	112599
#	128662
#	153512
#	171707
#	187907
#	209407
#	234926
#
# Disc length: 3421 seconds
#
# Revision: 0
# Processed by: cddbd v1.4PL0 Copyright (c) Steve Scherf et al.
# Submitted via: CDex 1.40Release
#
DISCID=910d5b0c
DTITLE=Cindy Peres - The magic of music
DYEAR=1900
DGENRE=Blues
TTITLE0=Hey babe
TTITLE1=I welcome you
TTITLE2=Miracle man
TTITLE3=All around us
TTITLE4=Hot and sweet
TTITLE5=I wanna give you something
TTITLE6=Stay with me
TTITLE7=As the sun beats down
TTITLE8=Sweet kiss
TTITLE9=Someplace in time
TTITLE10=Going away
TTITLE11=The last time
EXTD=ID3G: 0
EXTT0=
EXTT1=
EXTT2=
EXTT3=
EXTT4=
EXTT5=
EXTT6=
EXTT7=
EXTT8=
EXTT9=
EXTT10=
EXTT11=
PLAYORDER=
